HIERARCHY
ROOT Root
{
  OFFSET 21.0663 10.5272 4.55415
  CHANNELS 6 Xposition Yposition Zposition Zrotation Xrotation Yrotation
  JOINT Spine
  {
    OFFSET 5.3114 0 0
    CHANNELS 3 Zrotation Xrotation Yrotation
    JOINT Spine1
    {
      OFFSET 2.79004 0 0
      CHANNELS 3 Zrotation Xrotation Yrotation
      JOINT Neck
      {
        OFFSET 1.43377 0 0
        CHANNELS 3 Zrotation Xrotation Yrotation
        JOINT Head
        {
          OFFSET 1.86043 0 0
          CHANNELS 3 Zrotation Xrotation Yrotation
          End Site
          {
            OFFSET 0 0 0
          }
        }
      }
      JOINT LeftArm
      {
        OFFSET 0.0387506 0 2.55754
        CHANNELS 3 Zrotation Xrotation Yrotation
        JOINT LeftForeArm
        {
          OFFSET 4.24845 0 0
          CHANNELS 3 Zrotation Xrotation Yrotation
          JOINT LeftHand
          {
            OFFSET 4.01008 0 0
            CHANNELS 3 Zrotation Xrotation Yrotation
            End Site
            {
              OFFSET 0 0 0
            }
          }
        }
      }
      JOINT RightArm
      {
        OFFSET 0.0387506 0 -2.55754
        CHANNELS 3 Zrotation Xrotation Yrotation
        JOINT RightForeArm
        {
          OFFSET -4.24845 0 0
          CHANNELS 3 Zrotation Xrotation Yrotation
          JOINT RightHand
          {
            OFFSET -4.01009 0 0
            CHANNELS 3 Zrotation Xrotation Yrotation
            End Site
            {
              OFFSET 0 0 0
            }
          }
        }
      }
    }
  }
  JOINT LeftUpLeg
  {
    OFFSET -1.23318 0 2.05692
    CHANNELS 3 Zrotation Xrotation Yrotation
    JOINT LeftLeg
    {
      OFFSET 5.46397 0 0
      CHANNELS 3 Zrotation Xrotation Yrotation
      JOINT LeftFoot
      {
        OFFSET 4.68898 0 0
        CHANNELS 3 Zrotation Xrotation Yrotation
        End Site
        {
          OFFSET 0 0 0
        }
      }
    }
  }
  JOINT RightUpLeg
  {
    OFFSET -1.24454 0 -2.05007
    CHANNELS 3 Zrotation Xrotation Yrotation
    JOINT RightLeg
    {
      OFFSET -5.46397 0 0
      CHANNELS 3 Zrotation Xrotation Yrotation
      JOINT RightFoot
      {
        OFFSET -4.68901 0 0
        CHANNELS 3 Zrotation Xrotation Yrotation
        End Site
        {
          OFFSET 0 0 0
        }
      }
    }
  }
}
MOTION
Frames:	10
Frame Time:	0.0416667
17.8228 9.29958 4.00456 -127.892 -1.40502 178.627 4.35638 0.818671 -0.56317 -1.45263 0.232637 1.40316 -26.8952 -0.153735 -6.28647 11.0103 -1.72174 5.66873 -50.2612 -68.5213 -112.619 35.9981 3.45098 20.5947 -0.643811 -7.31398 174.391 110.564 -63.9451 -128.166 27.942 1.53375 16.1594 2.32819 24.9426 173.942 -89.0236 1.47307 -170.655 -87.4336 -0.644079 -2.76634 32.1707 0.511375 176.506 91.0549 -0.301511 -174.243 -87.3158 -0.761089 -3.10619 24.1876 4.57711 174.975 
17.768 8.91168 4.02754 -129.291 -1.19279 178.703 6.00762 1.11013 -1.08308 -2.8018 0.298807 2.0329 -26.9685 -0.107024 -7.40823 9.96573 -2.06366 6.87652 -51.136 -68.3416 -113.628 36.0863 3.47563 20.6422 -0.619897 -7.07497 174.395 112.699 -64.3916 -126.31 28.1244 1.56989 16.2617 2.28391 24.5577 173.961 -94.1358 0.842503 -170.145 -93.328 -0.492526 -2.93758 34.2901 0.486434 176.485 85.5304 -0.948527 -175.001 -93.2368 -0.601422 -3.31398 26.3436 4.41596 174.924 
17.7138 8.48437 4.05109 -131.118 -1.10153 178.608 7.0212 1.29003 -1.29129 -2.83996 0.379882 1.16954 -27.7125 -0.564218 -6.88786 8.33086 -2.75256 7.04601 -51.6664 -69.1952 -113.018 36.0327 3.46071 20.6133 -0.623183 -7.11307 174.396 110.032 -63.1394 -128.348 27.8632 1.51827 16.1151 2.33147 24.959 173.941 -99.9448 -0.0297665 -169.672 -99.3079 -0.296432 -3.09916 35.9754 -0.109663 176.712 79.6331 -2.03021 -175.748 -99.1464 -0.374056 -3.51367 28.145 4.14787 174.936 
17.6754 8.06323 4.07223 -132.38 -1.07703 178.572 8.38707 0.923379 -1.71483 -3.52405 0.282846 1.32549 -28.3978 -0.61637 -6.46338 7.4246 -2.68566 6.86441 -53.397 -68.8893 -114.488 35.9049 3.42509 20.5445 -0.66768 -7.56984 174.391 108.087 -62.8292 -130.536 27.646 1.47582 15.9931 2.35061 25.1151 173.934 -104.995 -1.07703 -169.478 -104.894 -0.0556797 -3.24139 37.4028 0.134133 176.576 74.4302 -2.63185 -176.315 -104.991 -0.103368 -3.69559 29.8958 4.17008 174.853 
17.659 7.62252 4.08935 -133.171 -1.10996 178.411 9.89578 0.792413 -1.80035 -4.3591 0.247477 1.39312 -28.3746 -0.628387 -6.41933 6.11318 -2.69094 6.78976 -53.5074 -69.0407 -115.132 35.8176 3.40082 20.4974 -0.734333 -8.25613 174.383 107.983 -62.7702 -131.278 27.5794 1.46297 15.9556 2.36556 25.2346 173.928 -109.583 -2.30172 -169.517 -110.756 0.229182 -3.37318 39.172 0.293023 176.478 69.6931 -2.89368 -176.589 -110.793 0.207449 -3.85761 32.4852 4.59347 174.494 
17.6506 7.20666 4.10984 -133.441 -1.39609 178.725 11.9496 0.564394 -2.53045 -5.31815 0.200412 1.65208 -28.7016 -0.700674 -6.53721 5.83523 -2.88375 7.02966 -51.8905 -69.1868 -114.274 36.1628 3.49711 20.6834 -0.727533 -8.21172 174.386 109.253 -62.9066 -130.771 27.4661 1.44107 15.8919 2.34188 25.0245 173.938 -113.164 -2.81621 -169.454 -116.11 0.542243 -3.47956 40.9622 0.423954 176.373 65.5501 -3.68144 -176.699 -116.447 0.584229 -3.98594 33.2472 4.46101 174.612 
17.6505 6.81517 4.12764 -133.232 -1.40261 178.681 14.0425 0.637164 -2.75738 -6.08137 0.245041 1.61525 -29.2572 -0.82823 -6.50775 5.92498 -3.11393 7.3971 -48.3397 -69.9724 -111.449 35.5576 3.32956 20.3571 -0.714388 -8.09556 174.389 109.248 -62.439 -131.591 27.1396 1.37962 15.7077 2.4742 26.1342 173.882 -116.268 -3.79828 -169.094 -121.264 0.893973 -3.5525 42.51 0.271704 176.398 62.5548 -3.86707 -176.606 -121.819 0.926193 -4.07541 33.7157 2.06759 175.95 
17.6643 6.43331 4.13201 -133.102 -1.69721 178.813 15.409 0.432935 -2.93943 -6.52353 0.19774 1.7844 -29.285 -0.866637 -6.39947 5.6487 -3.14029 7.15715 -48.4559 -70.3844 -112.513 34.6512 3.0846 19.867 -0.710703 -8.06247 174.391 111.021 -62.3089 -131.079 27.6158 1.4703 15.9759 2.40216 25.5186 173.913 -119.115 -4.16686 -168.762 -125.976 1.27085 -3.60201 43.762 0.497907 176.253 60.052 -3.75311 -176.12 -127.159 1.17863 -4.10862 35.796 -3.41492 178.894 
17.6839 6.0892 4.13499 -132.328 -1.61391 178.856 17.4451 0.479176 -2.98616 -7.41181 0.220708 1.87645 -29.2297 -0.79371 -6.67805 5.39438 -3.12029 7.55253 -47.1112 -70.4922 -112.335 33.8929 2.88684 19.4544 -0.686025 -7.81202 174.396 110.419 -62.5819 -132.43 26.5089 1.26169 15.3522 2.42539 25.7059 173.903 -120.871 -4.64718 -168.049 -130.506 1.68221 -3.61691 45.5039 0.202678 176.328 57.1696 -4.31836 -175.014 -130.997 1.89655 -4.1706 36.4618 4.14486 174.898 
17.6971 5.80682 4.13263 -131.565 -1.32024 179.223 19.1668 0.309944 -3.44883 -7.84937 0.224092 1.76574 -29.6835 -0.906847 -6.13614 5.16023 -3.08816 7.13557 -45.8893 -70.4414 -111.723 33.0142 2.66439 18.9742 -0.677455 -7.72052 174.399 109.557 -62.8959 -133.944 25.7512 1.1262 14.9238 2.45855 25.9772 173.889 -121.937 -4.8732 -167.069 -134.193 2.07035 -3.60983 47.1126 0.298876 176.213 55.9274 -4.2964 -174.767 -134.605 2.17606 -4.1564 37.8405 1.48016 176.492 
